<svg width="101" height="100" viewBox="0 0 101 100" fill="none" xmlns="http://www.w3.org/2000/svg">
<rect width="100" height="100" transform="translate(0.239258)" fill="black"/>
<path d="M56.7071 85H45.8764V37.753L31.8516 37.7528V27L70.8516 27.0003V37.753H56.7071V85Z" fill="white"/>
<path d="M54.6501 25.4099C62.9924 30.2071 65.9813 39.5044 62.9649 48.5665C62.9596 48.5834 62.9505 48.5988 62.9383 48.6117C62.9261 48.6245 62.9111 48.6344 62.8946 48.6406C62.878 48.6468 62.8602 48.6491 62.8426 48.6475C62.825 48.6458 62.808 48.6402 62.7929 48.631L61.4491 47.8551C61.4167 47.8367 61.3915 47.8081 61.3773 47.7737C61.3631 47.7393 61.3608 47.7012 61.3707 47.6654C61.5316 47.0197 61.6446 45.998 61.7098 44.6003C62.0356 37.6791 58.6242 32.0249 52.7803 28.6653C46.9348 25.3001 40.3313 25.1915 34.5141 28.9518C33.3373 29.711 32.5107 30.3223 32.0343 30.7858C32.0083 30.8123 31.9741 30.8294 31.9373 30.8343C31.9004 30.8392 31.863 30.8317 31.8309 30.8128L30.485 30.0406C30.4695 30.0321 30.4561 30.0202 30.4458 30.0058C30.4356 29.9914 30.4287 29.9748 30.4258 29.9573C30.4229 29.9399 30.424 29.922 30.429 29.905C30.434 29.8881 30.4428 29.8724 30.4547 29.8594C36.7714 22.6979 46.31 20.6092 54.6501 25.4099ZM28.4632 36.9796C33.5374 36.475 38.0891 39.4449 39.5917 44.3006C40.8689 48.4288 39.0588 53.2408 35.1613 55.6867C28.0106 60.18 18.4017 54.0061 19.8213 45.549C20.4819 41.6018 22.7896 38.8561 26.7445 37.3119C26.8395 37.2766 26.9196 37.2087 26.9709 37.1199L28.4309 34.5912C28.4653 34.531 28.479 34.4612 28.47 34.3925C28.4609 34.3238 28.4296 34.2599 28.3808 34.2107C27.8695 33.7004 27.7719 33.0853 28.0879 32.3654C28.7058 30.9448 29.7903 30.126 31.1484 31.2858C32.5195 32.4483 31.2807 34.9361 29.8221 34.8261C29.6951 34.8163 29.568 34.8426 29.4553 34.902C29.3426 34.9614 29.249 35.0514 29.1853 35.1616L28.2905 36.7114C28.274 36.7399 28.2657 36.7724 28.2665 36.8054C28.2673 36.8384 28.2772 36.8705 28.295 36.8982C28.3128 36.9259 28.338 36.9482 28.3676 36.9625C28.3973 36.9769 28.4304 36.9828 28.4632 36.9796ZM32.9491 48.7982C33.183 48.393 33.3348 47.9458 33.3959 47.482C33.4569 47.0182 33.426 46.5469 33.305 46.095C33.1839 45.6432 32.975 45.2196 32.6902 44.8484C32.4054 44.4773 32.0503 44.1659 31.6452 43.932C30.827 43.4596 29.8547 43.3316 28.9421 43.5761C28.0295 43.8206 27.2514 44.4177 26.779 45.2359C26.3066 46.0541 26.1786 47.0264 26.4232 47.939C26.6677 48.8516 27.2647 49.6297 28.0829 50.102C28.9011 50.5744 29.8735 50.7024 30.786 50.4579C31.6986 50.2134 32.4767 49.6164 32.9491 48.7982ZM59.1077 52.4277C59.1712 52.3168 59.202 52.1902 59.1964 52.0625C59.1908 51.9348 59.1492 51.8113 59.0762 51.7063C58.2475 50.5054 59.7697 48.186 61.4625 48.7828C63.1502 49.3719 62.989 50.719 62.0713 51.9665C61.6107 52.6029 61.0309 52.8285 60.3319 52.6432C60.2652 52.6259 60.1946 52.6311 60.1311 52.6581C60.0677 52.685 60.0149 52.7322 59.981 52.7922L58.5303 55.3215C58.4798 55.4114 58.4623 55.5155 58.4809 55.6157C59.1376 59.8063 57.9291 63.1787 54.8555 65.7326C48.2716 71.213 38.112 66.0264 38.3901 57.5942C38.5425 53.0005 41.781 49.0181 45.9881 48.0465C50.9327 46.8987 55.7838 49.3334 57.9015 53.9662C57.9153 53.9966 57.9373 54.0225 57.965 54.041C57.9926 54.0596 58.0249 54.0701 58.0582 54.0713C58.0915 54.0725 58.1245 54.0644 58.1535 54.048C58.1825 54.0315 58.2063 54.0073 58.2222 53.978L59.1077 52.4277ZM51.6589 59.6147C51.8933 59.2086 52.0455 58.7604 52.1067 58.2955C52.1679 57.8306 52.137 57.3582 52.0156 56.9053C51.8942 56.4523 51.6849 56.0278 51.3994 55.6558C51.114 55.2838 50.758 54.9716 50.352 54.7372C49.5318 54.2637 48.5572 54.1354 47.6425 54.3805C46.7278 54.6256 45.9479 55.224 45.4744 56.0441C45.0009 56.8642 44.8726 57.8388 45.1177 58.7536C45.3628 59.6683 45.9612 60.4482 46.7813 60.9217C47.1874 61.1561 47.6357 61.3083 48.1006 61.3695C48.5655 61.4307 49.0379 61.3997 49.4908 61.2784C49.9437 61.157 50.3683 60.9476 50.7403 60.6622C51.1123 60.3767 51.4244 60.0208 51.6589 59.6147Z" fill="#3B82F6"/>
<path d="M31.8516 27L36.8516 27.0991V34H31.8516V27Z" fill="white"/>
<path d="M47.2748 60.275C48.6314 61.0583 50.3662 60.5935 51.1495 59.2368C51.9327 57.8801 51.4679 56.1454 50.1112 55.3621C48.7546 54.5788 47.0198 55.0436 46.2365 56.4003C45.4533 57.757 45.9181 59.4917 47.2748 60.275Z" fill="#3B82F6"/>
</svg>
