<svg width="287" height="83" viewBox="0 0 287 83" fill="none" xmlns="http://www.w3.org/2000/svg">
<path d="M13.2423 35.2622C14.9764 36.2634 17.1939 35.6692 18.1951 33.9351C19.1963 32.2009 18.6021 29.9835 16.868 28.9823C15.1338 27.9811 12.9164 28.5752 11.9152 30.3094C10.914 32.0435 11.5081 34.261 13.2423 35.2622Z" fill="#3B82F6"/>
<path d="M46.8623 4.36535C57.5729 10.5244 61.4104 22.4613 57.5377 34.0962C57.5308 34.1178 57.5191 34.1376 57.5035 34.1541C57.4878 34.1706 57.4686 34.1833 57.4474 34.1912C57.4261 34.1992 57.4033 34.2022 57.3807 34.2001C57.358 34.1979 57.3362 34.1907 57.3168 34.1789L55.5914 33.1827C55.5499 33.1592 55.5175 33.1224 55.4993 33.0783C55.4811 33.0341 55.4781 32.9852 55.4909 32.9392C55.6974 32.1102 55.8425 30.7984 55.9263 29.0039C56.3445 20.1178 51.9646 12.8583 44.4616 8.54493C36.9565 4.22426 28.4783 4.08488 21.0096 8.91281C19.4987 9.88744 18.4374 10.6723 17.8258 11.2674C17.7924 11.3015 17.7485 11.3234 17.7012 11.3297C17.6539 11.336 17.6058 11.3263 17.5646 11.3022L15.8366 10.3107C15.8167 10.2998 15.7995 10.2845 15.7863 10.266C15.7731 10.2474 15.7644 10.2262 15.7606 10.2038C15.7569 10.1814 15.7583 10.1584 15.7647 10.1366C15.7712 10.1148 15.7825 10.0948 15.7978 10.078C23.9077 0.883296 36.1543 -1.79833 46.8623 4.36535ZM13.2408 19.2197C19.7556 18.5718 25.5995 22.3849 27.5287 28.6191C29.1685 33.9194 26.8446 40.0974 21.8405 43.2378C12.6598 49.0067 0.322878 41.08 2.14551 30.2219C2.99356 25.1541 5.95643 21.6289 11.0341 19.6463C11.1561 19.601 11.259 19.5139 11.3249 19.3998L13.1993 16.1532C13.2435 16.076 13.2611 15.9863 13.2495 15.8981C13.2379 15.8099 13.1977 15.7279 13.1351 15.6647C12.4786 15.0094 12.3532 14.2197 12.759 13.2955C13.5523 11.4716 14.9447 10.4203 16.6884 11.9094C18.4487 13.4019 16.8582 16.596 14.9855 16.4548C14.8225 16.4422 14.6592 16.476 14.5146 16.5522C14.3699 16.6285 14.2497 16.744 14.1679 16.8856L13.0191 18.8753C12.998 18.9119 12.9873 18.9537 12.9883 18.996C12.9893 19.0383 13.002 19.0795 13.0249 19.1151C13.0478 19.1507 13.08 19.1793 13.1181 19.1978C13.1562 19.2162 13.1987 19.2238 13.2408 19.2197ZM19.0003 34.3935C19.3006 33.8734 19.4955 33.2992 19.5739 32.7037C19.6523 32.1082 19.6126 31.5031 19.4572 30.923C19.3017 30.3428 19.0335 29.799 18.6679 29.3225C18.3023 28.846 17.8464 28.4462 17.3262 28.1459C16.2757 27.5394 15.0273 27.375 13.8557 27.689C12.684 28.0029 11.685 28.7694 11.0785 29.8199C10.472 30.8704 10.3077 32.1188 10.6216 33.2905C10.9356 34.4621 11.7021 35.4611 12.7526 36.0676C13.8031 36.6741 15.0515 36.8385 16.2231 36.5245C17.3948 36.2106 18.3938 35.444 19.0003 34.3935ZM52.5854 39.0535C52.6669 38.9111 52.7064 38.7485 52.6992 38.5846C52.6921 38.4207 52.6386 38.2621 52.545 38.1274C51.481 36.5855 53.4353 33.6076 55.6087 34.3739C57.7756 35.1302 57.5686 36.8597 56.3903 38.4613C55.799 39.2784 55.0546 39.5681 54.1571 39.3302C54.0715 39.308 53.9808 39.3147 53.8993 39.3493C53.8179 39.3839 53.7501 39.4445 53.7066 39.5215L51.8441 42.7689C51.7792 42.8843 51.7568 43.018 51.7806 43.1466C52.6238 48.527 51.0722 52.8567 47.126 56.1357C38.6729 63.172 25.6289 56.513 25.986 45.6868C26.1817 39.7889 30.3396 34.6759 35.7411 33.4285C42.0895 31.9548 48.3178 35.0808 51.0368 41.0289C51.0545 41.0678 51.0827 41.1011 51.1182 41.1249C51.1537 41.1487 51.1952 41.1622 51.238 41.1637C51.2807 41.1653 51.3231 41.1549 51.3603 41.1338C51.3975 41.1126 51.428 41.0815 51.4485 41.044L52.5854 39.0535ZM43.0218 48.281C43.3229 47.7596 43.5182 47.184 43.5968 46.5872C43.6754 45.9903 43.6356 45.3838 43.4798 44.8023C43.324 44.2208 43.0552 43.6756 42.6887 43.198C42.3222 42.7204 41.8652 42.3197 41.3439 42.0186C40.2909 41.4107 39.0396 41.246 37.8652 41.5607C36.6908 41.8754 35.6895 42.6437 35.0815 43.6966C34.4736 44.7496 34.3089 46.0009 34.6236 47.1753C34.9382 48.3497 35.7066 49.351 36.7595 49.9589C37.2809 50.26 37.8564 50.4553 38.4533 50.5339C39.0502 50.6125 39.6567 50.5727 40.2382 50.4169C40.8197 50.2611 41.3648 49.9923 41.8425 49.6258C42.3201 49.2593 42.7208 48.8023 43.0218 48.281Z" fill="#3B82F6"/>
<path d="M51.3933 81.5546H37.3824V20.9101L19.2393 20.9098V7.10791L69.6913 7.10826V20.9101H51.3933V81.5546ZM96.9813 82.7048C90.9168 82.7048 85.2706 80.509 81.1928 76.4312C76.9059 72.3534 74.6055 66.8117 74.6055 60.8518V33.6664H87.78V60.8518C87.78 65.7661 91.8579 69.7394 96.9813 69.7394C102.105 69.7394 106.287 65.7661 106.287 60.8518V33.6664H119.462V60.8518C119.462 66.7072 117.057 72.2488 112.77 76.4312C108.587 80.509 103.046 82.7048 96.9813 82.7048ZM178.119 81.5546H164.945V55.9375C164.945 50.2913 160.449 45.8998 154.803 45.8998C149.366 45.8998 144.66 50.3959 144.66 55.9375V81.5546H131.59V33.6664H144.66V37.1168C147.902 33.8755 151.352 32.7253 154.803 32.7253C161.076 32.7253 166.932 35.1302 171.323 39.4171C175.715 43.9132 178.119 49.7685 178.119 55.9375V81.5546ZM210.115 82.7048H210.01C206.978 82.7048 203.841 81.9729 200.913 80.6136C198.195 79.4634 195.685 77.5814 193.385 75.1765C189.726 71.2032 187.53 65.9752 187.007 60.5381C186.902 59.5971 186.798 58.6561 186.798 57.6105C186.798 55.5193 187.112 53.3235 187.634 51.1278C188.575 46.9454 190.562 43.0767 193.385 40.1491C195.476 37.8487 197.881 36.0712 200.913 34.6074C203.736 33.2481 206.873 32.6208 210.115 32.6208C213.461 32.6208 216.493 33.2481 219.316 34.6074C222.453 36.0712 224.962 37.9533 226.844 40.1491C229.563 43.0767 231.654 46.8409 232.699 51.1278C233.222 53.1144 233.431 55.2056 233.431 57.6105V60.0154H198.299L198.404 60.7473C199.763 67.23 204.678 71.9351 210.115 71.9351H210.219C213.251 71.726 216.597 69.8439 218.584 68.171L219.734 67.23L228.413 74.7583L226.844 76.1175C225.694 77.1631 224.23 78.4178 222.662 79.2543H222.557C218.793 81.4501 214.715 82.6002 210.115 82.7048ZM210.115 43.495C206.037 43.495 201.959 46.3181 199.763 50.7096L199.345 51.546H220.989L220.571 50.7096C218.166 46.2135 214.192 43.495 210.115 43.495ZM263.335 82.7048H263.231C260.199 82.7048 257.062 81.9729 254.134 80.6136C251.416 79.4634 248.906 77.5814 246.606 75.1765C242.946 71.2032 240.751 65.9752 240.228 60.5381C240.123 59.5971 240.019 58.6561 240.019 57.6105C240.019 55.5193 240.332 53.3235 240.855 51.1278C241.796 46.9454 243.783 43.0767 246.606 40.1491C248.697 37.8487 251.102 36.0712 254.134 34.6074C256.957 33.2481 260.094 32.6208 263.335 32.6208C266.681 32.6208 269.714 33.2481 272.537 34.6074C275.673 36.0712 278.183 37.9533 280.065 40.1491C282.783 43.0767 284.875 46.8409 285.92 51.1278C286.443 53.1144 286.652 55.2056 286.652 57.6105V60.0154H251.52L251.625 60.7473C252.984 67.23 257.898 71.9351 263.335 71.9351H263.44C266.472 71.726 269.818 69.8439 271.805 68.171L272.955 67.23L281.633 74.7583L280.065 76.1175C278.915 77.1631 277.451 78.4178 275.883 79.2543H275.778C272.014 81.4501 267.936 82.6002 263.335 82.7048ZM263.335 43.495C259.258 43.495 255.18 46.3181 252.984 50.7096L252.566 51.546H274.21L273.791 50.7096C271.386 46.2135 267.413 43.495 263.335 43.495Z" fill="black"/>
<path d="M46.8623 4.36535C57.5729 10.5244 61.4104 22.4613 57.5377 34.0962C57.5308 34.1178 57.5191 34.1376 57.5035 34.1541C57.4878 34.1706 57.4686 34.1833 57.4474 34.1912C57.4261 34.1992 57.4033 34.2022 57.3807 34.2001C57.358 34.1979 57.3362 34.1907 57.3168 34.1789L55.5914 33.1827C55.5499 33.1592 55.5175 33.1224 55.4993 33.0783C55.4811 33.0341 55.4781 32.9852 55.4909 32.9392C55.6974 32.1102 55.8425 30.7984 55.9263 29.0039C56.3445 20.1178 51.9646 12.8583 44.4616 8.54493C36.9565 4.22426 28.4783 4.08488 21.0096 8.91281C19.4987 9.88744 18.4374 10.6723 17.8258 11.2674C17.7924 11.3015 17.7485 11.3234 17.7012 11.3297C17.6539 11.336 17.6058 11.3263 17.5646 11.3022L15.8366 10.3107C15.8167 10.2998 15.7995 10.2845 15.7863 10.266C15.7731 10.2474 15.7644 10.2262 15.7606 10.2038C15.7569 10.1814 15.7583 10.1584 15.7647 10.1366C15.7712 10.1148 15.7825 10.0948 15.7978 10.078C23.9077 0.883296 36.1543 -1.79833 46.8623 4.36535ZM13.2408 19.2197C19.7556 18.5718 25.5995 22.3849 27.5287 28.6191C29.1685 33.9194 26.8446 40.0974 21.8405 43.2378C12.6598 49.0067 0.322878 41.08 2.14551 30.2219C2.99356 25.1541 5.95643 21.6289 11.0341 19.6463C11.1561 19.601 11.259 19.5139 11.3249 19.3998L13.1993 16.1532C13.2435 16.076 13.2611 15.9863 13.2495 15.8981C13.2379 15.8099 13.1977 15.7279 13.1351 15.6647C12.4786 15.0094 12.3532 14.2197 12.759 13.2955C13.5523 11.4716 14.9447 10.4203 16.6884 11.9094C18.4487 13.4019 16.8582 16.596 14.9855 16.4548C14.8225 16.4422 14.6592 16.476 14.5146 16.5522C14.3699 16.6285 14.2497 16.744 14.1679 16.8856L13.0191 18.8753C12.998 18.9119 12.9873 18.9537 12.9883 18.996C12.9893 19.0383 13.002 19.0795 13.0249 19.1151C13.0478 19.1507 13.08 19.1793 13.1181 19.1978C13.1562 19.2162 13.1987 19.2238 13.2408 19.2197ZM19.0003 34.3935C19.3006 33.8734 19.4955 33.2992 19.5739 32.7037C19.6523 32.1082 19.6126 31.5031 19.4572 30.923C19.3017 30.3428 19.0335 29.799 18.6679 29.3225C18.3023 28.846 17.8464 28.4462 17.3262 28.1459C16.2757 27.5394 15.0273 27.375 13.8557 27.689C12.684 28.0029 11.685 28.7694 11.0785 29.8199C10.472 30.8704 10.3077 32.1188 10.6216 33.2905C10.9356 34.4621 11.7021 35.4611 12.7526 36.0676C13.8031 36.6741 15.0515 36.8385 16.2231 36.5245C17.3948 36.2106 18.3938 35.444 19.0003 34.3935ZM52.5854 39.0535C52.6669 38.9111 52.7064 38.7485 52.6992 38.5846C52.6921 38.4207 52.6386 38.2621 52.545 38.1274C51.481 36.5855 53.4353 33.6076 55.6087 34.3739C57.7756 35.1302 57.5686 36.8597 56.3903 38.4613C55.799 39.2784 55.0546 39.5681 54.1571 39.3302C54.0715 39.308 53.9808 39.3147 53.8993 39.3493C53.8179 39.3839 53.7501 39.4445 53.7066 39.5215L51.8441 42.7689C51.7792 42.8843 51.7568 43.018 51.7806 43.1466C52.6238 48.527 51.0722 52.8567 47.126 56.1357C38.6729 63.172 25.6289 56.513 25.986 45.6868C26.1817 39.7889 30.3396 34.6759 35.7411 33.4285C42.0895 31.9548 48.3178 35.0808 51.0368 41.0289C51.0545 41.0678 51.0827 41.1011 51.1182 41.1249C51.1537 41.1487 51.1952 41.1622 51.238 41.1637C51.2807 41.1653 51.3231 41.1549 51.3603 41.1338C51.3975 41.1126 51.428 41.0815 51.4485 41.044L52.5854 39.0535ZM43.0218 48.281C43.3229 47.7596 43.5182 47.184 43.5968 46.5872C43.6754 45.9903 43.6356 45.3838 43.4798 44.8023C43.324 44.2208 43.0552 43.6756 42.6887 43.198C42.3222 42.7204 41.8652 42.3197 41.3439 42.0186C40.2909 41.4107 39.0396 41.246 37.8652 41.5607C36.6908 41.8754 35.6895 42.6437 35.0815 43.6966C34.4736 44.7496 34.3089 46.0009 34.6236 47.1753C34.9382 48.3497 35.7066 49.351 36.7595 49.9589C37.2809 50.26 37.8564 50.4553 38.4533 50.5339C39.0502 50.6125 39.6567 50.5727 40.2382 50.4169C40.8197 50.2611 41.3648 49.9923 41.8425 49.6258C42.3201 49.2593 42.7208 48.8023 43.0218 48.281Z" fill="#3B82F6"/>
<path d="M19.2393 7L26.2393 7.11325V15H19.2393V7Z" fill="black"/>
<path d="M37.2304 49.1428C38.9722 50.1484 41.1994 49.5516 42.2051 47.8098C43.2107 46.068 42.6139 43.8407 40.8721 42.835C39.1303 41.8294 36.903 42.4262 35.8974 44.168C34.8917 45.9098 35.4885 48.1371 37.2304 49.1428Z" fill="#3B82F6"/>
</svg>
