<svg width="138" height="40" viewBox="0 0 138 40" fill="none" xmlns="http://www.w3.org/2000/svg">
<g clip-path="url(#clip0_872_9)">
<path d="M6.36758 16.9938C7.2014 17.4763 8.26766 17.1899 8.74907 16.3542C9.23048 15.5184 8.94477 14.4498 8.11095 13.9673C7.27709 13.4848 6.21088 13.7711 5.72947 14.6069C5.24805 15.4426 5.53372 16.5113 6.36758 16.9938Z" fill="#3B82F6"/>
<path d="M22.5332 2.10358C27.6833 5.07179 29.5285 10.8245 27.6664 16.4317C27.663 16.4421 27.6574 16.4516 27.6499 16.4596C27.6424 16.4676 27.6331 16.4737 27.6229 16.4775C27.6127 16.4813 27.6017 16.4828 27.5909 16.4818C27.58 16.4807 27.5695 16.4772 27.5601 16.4716L26.7305 15.9915C26.7106 15.9801 26.695 15.9624 26.6862 15.9411C26.6775 15.9198 26.676 15.8963 26.6822 15.8741C26.7815 15.4746 26.8513 14.8424 26.8915 13.9776C27.0926 9.69512 24.9866 6.19656 21.3789 4.11783C17.7702 2.03558 13.6936 1.96841 10.1023 4.29512C9.37584 4.76482 8.86552 5.14307 8.57145 5.42986C8.55539 5.4463 8.53428 5.45685 8.51153 5.45989C8.48879 5.46293 8.46566 5.45825 8.44585 5.44664L7.61497 4.9688C7.6054 4.96355 7.59713 4.95618 7.59078 4.94726C7.58443 4.9383 7.58025 4.92808 7.57842 4.91729C7.57664 4.90649 7.57732 4.89541 7.58039 4.8849C7.58352 4.87439 7.58895 4.86476 7.59631 4.85666C11.4958 0.425477 17.3845 -0.866873 22.5332 2.10358ZM6.36681 9.2623C9.49936 8.95006 12.3093 10.7877 13.237 13.7921C14.0254 16.3465 12.908 19.3238 10.5019 20.8373C6.08744 23.6175 0.155406 19.7974 1.03179 14.5646C1.43957 12.1223 2.86422 10.4234 5.30575 9.46789C5.36441 9.44606 5.41389 9.40408 5.44558 9.34909L6.34686 7.78447C6.36811 7.74726 6.37657 7.70403 6.37099 7.66153C6.36542 7.61902 6.34609 7.5795 6.31599 7.54905C6.00032 7.23324 5.94002 6.85266 6.13514 6.40726C6.51659 5.52827 7.18611 5.02162 8.02454 5.73926C8.87096 6.45854 8.10619 7.99786 7.20573 7.92982C7.12735 7.92374 7.04883 7.94003 6.9793 7.97676C6.90972 8.01353 6.85193 8.06919 6.81259 8.13743L6.26021 9.09632C6.25006 9.11396 6.24492 9.13411 6.2454 9.15449C6.24588 9.17488 6.25199 9.19473 6.263 9.21189C6.27401 9.22905 6.28949 9.24283 6.30781 9.25174C6.32613 9.26061 6.34657 9.26428 6.36681 9.2623ZM9.13619 16.575C9.28058 16.3243 9.3743 16.0476 9.41199 15.7606C9.44969 15.4736 9.4306 15.182 9.35588 14.9024C9.28111 14.6228 9.15215 14.3608 8.97636 14.1311C8.80056 13.9015 8.58135 13.7088 8.33122 13.5641C7.8261 13.2718 7.22582 13.1926 6.66248 13.3439C6.09908 13.4952 5.61873 13.8646 5.3271 14.3708C5.03547 14.8771 4.95647 15.4787 5.10741 16.0434C5.25839 16.608 5.62695 17.0895 6.13207 17.3818C6.63719 17.6741 7.23746 17.7533 7.80081 17.602C8.36421 17.4507 8.84456 17.0812 9.13619 16.575ZM25.2851 18.8208C25.3243 18.7521 25.3433 18.6738 25.3398 18.5948C25.3364 18.5158 25.3107 18.4394 25.2657 18.3744C24.7541 17.6314 25.6938 16.1962 26.7388 16.5655C27.7808 16.93 27.6812 17.7635 27.1147 18.5354C26.8303 18.9291 26.4724 19.0688 26.0409 18.9541C25.9997 18.9434 25.9561 18.9466 25.9169 18.9633C25.8778 18.98 25.8452 19.0092 25.8242 19.0463L24.9287 20.6113C24.8975 20.6669 24.8867 20.7314 24.8981 20.7933C25.3036 23.3863 24.5575 25.4729 22.66 27.0531C18.5955 30.4441 12.3235 27.235 12.4952 22.0175C12.5893 19.1752 14.5885 16.7111 17.1858 16.1099C20.2383 15.3997 23.2331 16.9062 24.5405 19.7728C24.549 19.7915 24.5626 19.8076 24.5796 19.819C24.5967 19.8305 24.6167 19.837 24.6372 19.8377C24.6578 19.8385 24.6782 19.8335 24.696 19.8233C24.7139 19.8131 24.7286 19.7981 24.7385 19.78L25.2851 18.8208ZM20.6866 23.2677C20.8314 23.0165 20.9253 22.7391 20.9631 22.4515C21.0009 22.1638 20.9817 21.8715 20.9068 21.5913C20.8319 21.311 20.7027 21.0483 20.5264 20.8181C20.3502 20.5879 20.1305 20.3948 19.8798 20.2497C19.3735 19.9568 18.7718 19.8774 18.2071 20.029C17.6424 20.1807 17.161 20.551 16.8686 21.0584C16.5763 21.5659 16.4971 22.1689 16.6484 22.7349C16.7997 23.3009 17.1692 23.7834 17.6755 24.0764C17.9262 24.2215 18.2029 24.3156 18.4899 24.3535C18.7769 24.3914 19.0685 24.3722 19.3481 24.2971C19.6277 24.222 19.8898 24.0925 20.1195 23.9158C20.3492 23.7392 20.5419 23.519 20.6866 23.2677Z" fill="#3B82F6"/>
<path d="M24.7118 39.3032H17.9748V10.077L9.25098 10.0768V3.42529L33.5101 3.42546V10.077H24.7118V39.3032ZM46.6321 39.8575C43.7161 39.8575 41.0012 38.7993 39.0405 36.8341C36.9792 34.8689 35.8731 32.1982 35.8731 29.326V16.2246H42.2078V29.326C42.2078 31.6943 44.1686 33.6091 46.6321 33.6091C49.0958 33.6091 51.1067 31.6943 51.1067 29.326V16.2246H57.4417V29.326C57.4417 32.1478 56.2853 34.8185 54.2239 36.8341C52.2126 38.7993 49.5483 39.8575 46.6321 39.8575ZM85.6461 39.3032H79.3116V26.9576C79.3116 24.2366 77.1497 22.1202 74.4349 22.1202C71.8206 22.1202 69.5578 24.287 69.5578 26.9576V39.3032H63.2733V16.2246H69.5578V17.8874C71.1167 16.3253 72.7755 15.771 74.4349 15.771C77.4512 15.771 80.267 16.93 82.3783 18.996C84.4902 21.1628 85.6461 23.9846 85.6461 26.9576V39.3032ZM101.031 39.8575H100.98C99.5225 39.8575 98.0142 39.5048 96.6063 38.8497C95.2994 38.2954 94.0925 37.3884 92.9865 36.2294C91.2272 34.3146 90.1712 31.7951 89.9198 29.1748C89.8693 28.7213 89.8193 28.2678 89.8193 27.7639C89.8193 26.7561 89.9703 25.6979 90.2213 24.6397C90.6737 22.6241 91.6291 20.7597 92.9865 19.3488C93.992 18.2401 95.1484 17.3835 96.6063 16.6781C97.9637 16.023 99.4721 15.7207 101.031 15.7207C102.64 15.7207 104.098 16.023 105.455 16.6781C106.963 17.3835 108.17 18.2905 109.075 19.3488C110.382 20.7597 111.388 22.5737 111.89 24.6397C112.142 25.5971 112.242 26.6049 112.242 27.7639V28.9229H95.3494L95.3999 29.2756C96.0533 32.3998 98.4166 34.6673 101.031 34.6673H101.081C102.539 34.5665 104.148 33.6595 105.103 32.8533L105.656 32.3998L109.829 36.0279L109.075 36.6829C108.522 37.1868 107.818 37.7915 107.064 38.1946H107.013C105.204 39.2529 103.243 39.8071 101.031 39.8575ZM101.031 20.9612C99.0701 20.9612 97.1092 22.3218 96.0533 24.4382L95.8523 24.8412H106.26L106.059 24.4382C104.902 22.2714 102.991 20.9612 101.031 20.9612ZM126.621 39.8575H126.571C125.113 39.8575 123.605 39.5048 122.197 38.8497C120.89 38.2954 119.683 37.3884 118.577 36.2294C116.817 34.3146 115.762 31.7951 115.51 29.1748C115.46 28.7213 115.41 28.2678 115.41 27.7639C115.41 26.7561 115.56 25.6979 115.812 24.6397C116.264 22.6241 117.22 20.7597 118.577 19.3488C119.583 18.2401 120.739 17.3835 122.197 16.6781C123.554 16.023 125.063 15.7207 126.621 15.7207C128.23 15.7207 129.688 16.023 131.046 16.6781C132.554 17.3835 133.76 18.2905 134.665 19.3488C135.972 20.7597 136.978 22.5737 137.481 24.6397C137.732 25.5971 137.833 26.6049 137.833 27.7639V28.9229H120.94L120.99 29.2756C121.644 32.3998 124.007 34.6673 126.621 34.6673H126.672C128.129 34.5665 129.738 33.6595 130.694 32.8533L131.247 32.3998L135.419 36.0279L134.665 36.6829C134.112 37.1868 133.409 37.7915 132.655 38.1946H132.604C130.794 39.2529 128.833 39.8071 126.621 39.8575ZM126.621 20.9612C124.661 20.9612 122.7 22.3218 121.644 24.4382L121.443 24.8412H131.85L131.649 24.4382C130.492 22.2714 128.582 20.9612 126.621 20.9612Z" fill="black"/>
<path d="M22.5332 2.10358C27.6833 5.07179 29.5285 10.8245 27.6664 16.4317C27.663 16.4421 27.6574 16.4516 27.6499 16.4596C27.6424 16.4676 27.6331 16.4737 27.6229 16.4775C27.6127 16.4813 27.6017 16.4828 27.5909 16.4818C27.58 16.4807 27.5695 16.4772 27.5601 16.4716L26.7305 15.9915C26.7106 15.9801 26.695 15.9624 26.6862 15.9411C26.6775 15.9198 26.676 15.8963 26.6822 15.8741C26.7815 15.4746 26.8513 14.8424 26.8915 13.9776C27.0926 9.69512 24.9866 6.19656 21.3789 4.11783C17.7702 2.03558 13.6936 1.96841 10.1023 4.29512C9.37584 4.76482 8.86552 5.14307 8.57145 5.42986C8.55539 5.4463 8.53428 5.45685 8.51153 5.45989C8.48879 5.46293 8.46566 5.45825 8.44585 5.44664L7.61497 4.9688C7.6054 4.96355 7.59713 4.95618 7.59078 4.94726C7.58443 4.9383 7.58025 4.92808 7.57842 4.91729C7.57664 4.90649 7.57732 4.89541 7.58039 4.8849C7.58352 4.87439 7.58895 4.86476 7.59631 4.85666C11.4958 0.425477 17.3845 -0.866873 22.5332 2.10358ZM6.36681 9.2623C9.49936 8.95006 12.3093 10.7877 13.237 13.7921C14.0254 16.3465 12.908 19.3238 10.5019 20.8373C6.08744 23.6175 0.155406 19.7974 1.03179 14.5646C1.43957 12.1223 2.86422 10.4234 5.30575 9.46789C5.36441 9.44606 5.41389 9.40408 5.44558 9.34909L6.34686 7.78447C6.36811 7.74726 6.37657 7.70403 6.37099 7.66153C6.36542 7.61902 6.34609 7.5795 6.31599 7.54905C6.00032 7.23324 5.94002 6.85266 6.13514 6.40726C6.51659 5.52827 7.18611 5.02162 8.02454 5.73926C8.87096 6.45854 8.10619 7.99786 7.20573 7.92982C7.12735 7.92374 7.04883 7.94003 6.9793 7.97676C6.90972 8.01353 6.85193 8.06919 6.81259 8.13743L6.26021 9.09632C6.25006 9.11396 6.24492 9.13411 6.2454 9.15449C6.24588 9.17488 6.25199 9.19473 6.263 9.21189C6.27401 9.22905 6.28949 9.24283 6.30781 9.25174C6.32613 9.26061 6.34657 9.26428 6.36681 9.2623ZM9.13619 16.575C9.28058 16.3243 9.3743 16.0476 9.41199 15.7606C9.44969 15.4736 9.4306 15.182 9.35588 14.9024C9.28111 14.6228 9.15215 14.3608 8.97636 14.1311C8.80056 13.9015 8.58135 13.7088 8.33122 13.5641C7.8261 13.2718 7.22582 13.1926 6.66248 13.3439C6.09908 13.4952 5.61873 13.8646 5.3271 14.3708C5.03547 14.8771 4.95647 15.4787 5.10741 16.0434C5.25839 16.608 5.62695 17.0895 6.13207 17.3818C6.63719 17.6741 7.23746 17.7533 7.80081 17.602C8.36421 17.4507 8.84456 17.0812 9.13619 16.575ZM25.2851 18.8208C25.3243 18.7521 25.3433 18.6738 25.3398 18.5948C25.3364 18.5158 25.3107 18.4394 25.2657 18.3744C24.7541 17.6314 25.6938 16.1962 26.7388 16.5655C27.7808 16.93 27.6812 17.7635 27.1147 18.5354C26.8303 18.9291 26.4724 19.0688 26.0409 18.9541C25.9997 18.9434 25.9561 18.9466 25.9169 18.9633C25.8778 18.98 25.8452 19.0092 25.8242 19.0463L24.9287 20.6113C24.8975 20.6669 24.8867 20.7314 24.8981 20.7933C25.3036 23.3863 24.5575 25.4729 22.66 27.0531C18.5955 30.4441 12.3235 27.235 12.4952 22.0175C12.5893 19.1752 14.5885 16.7111 17.1858 16.1099C20.2383 15.3997 23.2331 16.9062 24.5405 19.7728C24.549 19.7915 24.5626 19.8076 24.5796 19.819C24.5967 19.8305 24.6167 19.837 24.6372 19.8377C24.6578 19.8385 24.6782 19.8335 24.696 19.8233C24.7139 19.8131 24.7286 19.7981 24.7385 19.78L25.2851 18.8208ZM20.6866 23.2677C20.8314 23.0165 20.9253 22.7391 20.9631 22.4515C21.0009 22.1638 20.9817 21.8715 20.9068 21.5913C20.8319 21.311 20.7027 21.0483 20.5264 20.8181C20.3502 20.5879 20.1305 20.3948 19.8798 20.2497C19.3735 19.9568 18.7718 19.8774 18.2071 20.029C17.6424 20.1807 17.161 20.551 16.8686 21.0584C16.5763 21.5659 16.4971 22.1689 16.6484 22.7349C16.7997 23.3009 17.1692 23.7834 17.6755 24.0764C17.9262 24.2215 18.2029 24.3156 18.4899 24.3535C18.7769 24.3914 19.0685 24.3722 19.3481 24.2971C19.6277 24.222 19.8898 24.0925 20.1195 23.9158C20.3492 23.7392 20.5419 23.519 20.6866 23.2677Z" fill="#3B82F6"/>
<path d="M9.25098 3.37354L12.6168 3.42811V7.22896H9.25098V3.37354Z" fill="black"/>
<path d="M17.9017 23.6835C18.7393 24.1681 19.8102 23.8805 20.2938 23.0411C20.7773 22.2017 20.4903 21.1283 19.6528 20.6436C18.8153 20.159 17.7443 20.4466 17.2608 21.286C16.7772 22.1254 17.0642 23.1988 17.9017 23.6835Z" fill="#3B82F6"/>
</g>
<defs>
<clipPath id="clip0_872_9">
<rect width="138" height="40" fill="white"/>
</clipPath>
</defs>
</svg>
